HIERARCHY
ROOT Hips
{
    OFFSET   0.000000   0.000000   0.000000
    CHANNELS 6 Xposition Yposition Zposition Zrotation Xrotation Yrotation
    JOINT Chest
    {
        OFFSET   0.000000   8.007230   0.000000
        CHANNELS 3 Zrotation Xrotation Yrotation
        JOINT Chest2
        {
            OFFSET   0.000000  22.077100   0.000000
            CHANNELS 3 Zrotation Xrotation Yrotation
            JOINT Neck
            {
                OFFSET   0.000000  23.254800  -0.000021
                CHANNELS 3 Zrotation Xrotation Yrotation
                JOINT Head
                {
                    OFFSET   0.000000  14.370000   1.956610
                    CHANNELS 3 Zrotation Xrotation Yrotation
                    End Site
                    {
                        OFFSET   0.000000  19.566000   0.000000
                    }
                }
            }
            JOINT LeftCollar
            {
                OFFSET   3.911900  19.017000  -0.467063
                CHANNELS 3 Zrotation Xrotation Yrotation
                JOINT LeftShoulder
                {
                    OFFSET  10.383700   0.000000   0.000000
                    CHANNELS 3 Zrotation Xrotation Yrotation
                    JOINT LeftElbow
                    {
                        OFFSET  26.662100   0.001529   0.000325
                        CHANNELS 3 Zrotation Xrotation Yrotation
                        JOINT LeftWrist
                        {
                            OFFSET  28.869000  -0.000011  -0.000096
                            CHANNELS 3 Zrotation Xrotation Yrotation
                            JOINT LeftFinger0
                            {
                                OFFSET   2.044650  -2.323460   3.252850
                                CHANNELS 3 Zrotation Xrotation Yrotation
                                JOINT LeftFinger01
                                {
                                    OFFSET   3.088130   0.000000   0.000000
                                    CHANNELS 3 Zrotation Xrotation Yrotation
                                    JOINT LeftFinger02
                                    {
                                        OFFSET   2.639460   0.000000   0.000000
                                        CHANNELS 3 Zrotation Xrotation Yrotation
                                        End Site
                                        {
                                            OFFSET   2.582190   0.000000   0.000000
                                        }
                                    }
                                }
                            }
                            JOINT LeftFinger1
                            {
                                OFFSET   8.364480   0.000000   3.252850
                                CHANNELS 3 Zrotation Xrotation Yrotation
                                JOINT LeftFinger11
                                {
                                    OFFSET   4.646930   0.000000   0.000000
                                    CHANNELS 3 Zrotation Xrotation Yrotation
                                    JOINT LeftFinger12
                                    {
                                        OFFSET   2.323460   0.000000   0.000000
                                        CHANNELS 3 Zrotation Xrotation Yrotation
                                        End Site
                                        {
                                            OFFSET   2.273050   0.000000   0.000000
                                        }
                                    }
                                }
                            }
                            JOINT LeftFinger2
                            {
                                OFFSET   8.364480   0.000016   1.078090
                                CHANNELS 3 Zrotation Xrotation Yrotation
                                JOINT LeftFinger21
                                {
                                    OFFSET   5.111620   0.000000   0.000000
                                    CHANNELS 3 Zrotation Xrotation Yrotation
                                    JOINT LeftFinger22
                                    {
                                        OFFSET   2.788160   0.000017   0.000000
                                        CHANNELS 3 Zrotation Xrotation Yrotation
                                        End Site
                                        {
                                            OFFSET   2.727660   0.000000   0.000000
                                        }
                                    }
                                }
                            }
                            JOINT LeftFinger3
                            {
                                OFFSET   7.899780   0.000015  -1.078090
                                CHANNELS 3 Zrotation Xrotation Yrotation
                                JOINT LeftFinger31
                                {
                                    OFFSET   4.646920   0.000000   0.000000
                                    CHANNELS 3 Zrotation Xrotation Yrotation
                                    JOINT LeftFinger32
                                    {
                                        OFFSET   2.323470   0.000000   0.000000
                                        CHANNELS 3 Zrotation Xrotation Yrotation
                                        End Site
                                        {
                                            OFFSET   2.273050   0.000000   0.000000
                                        }
                                    }
                                }
                            }
                            JOINT LeftFinger4
                            {
                                OFFSET   7.435090   0.000000  -3.252850
                                CHANNELS 3 Zrotation Xrotation Yrotation
                                JOINT LeftFinger41
                                {
                                    OFFSET   3.717550   0.000000   0.000000
                                    CHANNELS 3 Zrotation Xrotation Yrotation
                                    JOINT LeftFinger42
                                    {
                                        OFFSET   1.858760   0.000000   0.000000
                                        CHANNELS 3 Zrotation Xrotation Yrotation
                                        End Site
                                        {
                                            OFFSET   1.818440   0.000000   0.000000
                                        }
                                    }
                                }
                            }
                        }
                    }
                }
            }
            JOINT RightCollar
            {
                OFFSET  -3.911900  19.017000  -0.467062
                CHANNELS 3 Zrotation Xrotation Yrotation
                JOINT RightShoulder
                {
                    OFFSET -10.383700   0.000015   0.000000
                    CHANNELS 3 Zrotation Xrotation Yrotation
                    JOINT RightElbow
                    {
                        OFFSET -26.662100   0.001341   0.000385
                        CHANNELS 3 Zrotation Xrotation Yrotation
                        JOINT RightWrist
                        {
                            OFFSET -28.869000   0.000025  -0.000080
                            CHANNELS 3 Zrotation Xrotation Yrotation
                            JOINT RightFinger0
                            {
                                OFFSET  -2.044650  -2.323490   3.252850
                                CHANNELS 3 Zrotation Xrotation Yrotation
                                JOINT RightFinger01
                                {
                                    OFFSET  -3.088130   0.000000   0.000000
                                    CHANNELS 3 Zrotation Xrotation Yrotation
                                    JOINT RightFinger02
                                    {
                                        OFFSET  -2.639460   0.000000   0.000000
                                        CHANNELS 3 Zrotation Xrotation Yrotation
                                        End Site
                                        {
                                            OFFSET  -2.582190   0.000000   0.000000
                                        }
                                    }
                                }
                            }
                            JOINT RightFinger1
                            {
                                OFFSET  -8.364480   0.000000   3.252850
                                CHANNELS 3 Zrotation Xrotation Yrotation
                                JOINT RightFinger11
                                {
                                    OFFSET  -4.646930   0.000000   0.000000
                                    CHANNELS 3 Zrotation Xrotation Yrotation
                                    JOINT RightFinger12
                                    {
                                        OFFSET  -2.323470   0.000000   0.000000
                                        CHANNELS 3 Zrotation Xrotation Yrotation
                                        End Site
                                        {
                                            OFFSET  -2.273050   0.000000   0.000000
                                        }
                                    }
                                }
                            }
                            JOINT RightFinger2
                            {
                                OFFSET  -8.364480   0.000000   1.078090
                                CHANNELS 3 Zrotation Xrotation Yrotation
                                JOINT RightFinger21
                                {
                                    OFFSET  -5.111610   0.000000   0.000000
                                    CHANNELS 3 Zrotation Xrotation Yrotation
                                    JOINT RightFinger22
                                    {
                                        OFFSET  -2.788160   0.000000   0.000000
                                        CHANNELS 3 Zrotation Xrotation Yrotation
                                        End Site
                                        {
                                            OFFSET  -2.727660   0.000000   0.000000
                                        }
                                    }
                                }
                            }
                            JOINT RightFinger3
                            {
                                OFFSET  -7.899780   0.000000  -1.078090
                                CHANNELS 3 Zrotation Xrotation Yrotation
                                JOINT RightFinger31
                                {
                                    OFFSET  -4.646920   0.000000   0.000000
                                    CHANNELS 3 Zrotation Xrotation Yrotation
                                    JOINT RightFinger32
                                    {
                                        OFFSET  -2.323470   0.000000   0.000000
                                        CHANNELS 3 Zrotation Xrotation Yrotation
                                        End Site
                                        {
                                            OFFSET  -2.273050   0.000000   0.000000
                                        }
                                    }
                                }
                            }
                            JOINT RightFinger4
                            {
                                OFFSET  -7.435090   0.000000  -3.252850
                                CHANNELS 3 Zrotation Xrotation Yrotation
                                JOINT RightFinger41
                                {
                                    OFFSET  -3.717550   0.000000   0.000000
                                    CHANNELS 3 Zrotation Xrotation Yrotation
                                    JOINT RightFinger42
                                    {
                                        OFFSET  -1.858770   0.000000   0.000000
                                        CHANNELS 3 Zrotation Xrotation Yrotation
                                        End Site
                                        {
                                            OFFSET  -1.818440   0.000000   0.000000
                                        }
                                    }
                                }
                            }
                        }
                    }
                }
            }
        }
    }
    JOINT LeftHip
    {
        OFFSET   9.783010   0.000000   0.000000
        CHANNELS 3 Zrotation Xrotation Yrotation
        JOINT LeftKnee
        {
            OFFSET   0.000070 -41.789100   0.000028
            CHANNELS 3 Zrotation Xrotation Yrotation
            JOINT LeftAnkle
            {
                OFFSET   0.000087 -41.133200  -0.000100
                CHANNELS 3 Zrotation Xrotation Yrotation
                JOINT LeftToe
                {
                    OFFSET   0.000000  -6.358960  14.674500
                    CHANNELS 3 Zrotation Xrotation Yrotation
                    End Site
                    {
                        OFFSET   0.000000   0.000000   3.913200
                    }
                }
            }
        }
    }
    JOINT RightHip
    {
        OFFSET  -9.783020   0.000000   0.000000
        CHANNELS 3 Zrotation Xrotation Yrotation
        JOINT RightKnee
        {
            OFFSET   0.000044 -41.789100  -0.000870
            CHANNELS 3 Zrotation Xrotation Yrotation
            JOINT RightAnkle
            {
                OFFSET  -0.000090 -41.133200  -0.000245
                CHANNELS 3 Zrotation Xrotation Yrotation
                JOINT RightToe
                {
                    OFFSET   0.000000  -6.358960  14.674500
                    CHANNELS 3 Zrotation Xrotation Yrotation
                    End Site
                    {
                        OFFSET   0.000000   0.000000   3.913200
                    }
                }
            }
        }
    }
}
MOTION
Frames: 5
Frame Time:   0.016667
 -0.279500  89.398800   1.436700  -1.696960  -0.870968   1.721720   0.989129   2.891140   0.193506   1.972250   5.785190   0.337578  -1.283680  -0.960640  -0.019547  -2.100890  -1.945410   3.355150  -5.977560   2.925070   8.685140 -78.157800   7.342040   1.937200  -1.185430  -0.820680 -18.449400  10.852900  -7.488810   0.549659  42.377400  37.026600 -51.678000 -32.038400  -0.000912   0.001660 -11.019200  -0.003762  -0.001448 -36.475600  -3.647420   4.926340 -29.972300  -0.003443  -0.000708 -20.980600   0.012837   0.000113 -35.586300  -3.569210   4.966100 -53.611300   0.000440   0.013246 -35.705100  -0.004924   0.000584 -30.735300  -5.051840   8.431160 -46.662100   0.000979   0.004614 -31.076900   0.000000   0.003356 -33.910500  -8.317880  12.134500 -52.195300  -0.005647   0.004802 -34.762100   0.000154   0.003986   6.830000   4.166550   6.754760  72.908300 -12.715000   0.327092   5.340220 -15.514700  11.009300 -20.888400   2.105640   0.107694 -42.577700  40.015400  76.334900  30.727500   0.001581  -0.000840  10.354700  -0.000945  -0.001445  41.201900   0.084111   0.096102  33.710700  -0.000564  -0.006225  23.870300   0.003146  -0.003723  32.939800   0.069422   0.107187  49.395900  -0.006581  -0.002313  32.907000  -0.005294  -0.004512  31.441800   0.066605   0.108966  47.162700  -0.004195  -0.002942  31.410400  -0.002219  -0.002558  34.995900   0.073237   0.104633  52.484400  -0.004153  -0.002920  34.961000  -0.003374  -0.004432   4.105990   3.971690  -0.776341  -0.300979   0.041378  12.656700  -2.498670  -3.214000   1.244930  -0.000000   0.000000  -0.000000  -1.029840   3.913030  -6.378910   0.495751   1.079150 -11.473500   1.014210  -3.021530   0.040342  -0.000000   0.000000   0.000000
 -0.298976  89.398800   1.448240  -1.696960  -0.870967   1.723010   0.990337   2.896190   0.193170   1.974680   5.795280   0.336759  -1.276210  -0.946275  -0.019547  -2.093310  -1.916090   3.384880  -5.981130   2.918280   8.685990 -78.162900   7.380000   1.922980  -1.191570  -0.839235 -18.446600  10.860300  -7.480810   0.553039  42.388000  37.034600 -51.664100 -32.029200  -0.000915   0.001665 -11.014500  -0.003769  -0.001455 -36.464200  -3.647440   4.926810 -29.962900  -0.003444  -0.000711 -20.974000   0.012840   0.000115 -35.575900  -3.569220   4.965980 -53.595500   0.000437   0.013246 -35.694500  -0.004922   0.000577 -30.729000  -5.051820   8.431120 -46.652600   0.000981   0.004617 -31.070600   0.000026   0.003357 -33.905200  -8.313970  12.135000 -52.186100  -0.005655   0.004806 -34.756000   0.000152   0.003987   6.829290   4.167890   6.758520  72.900600 -12.699000   0.338446   5.340700 -15.526700  11.002600 -20.887600   2.105430   0.085721 -42.571800  40.009800  76.330000  30.727400   0.001586  -0.000844  10.354500  -0.000945  -0.001450  41.202000   0.074433   0.085032  33.710700  -0.000564  -0.006215  23.870300   0.003142  -0.003725  32.939900   0.061435   0.094841  49.401000  -0.006586  -0.002307  32.907000  -0.005293  -0.004509  31.441800   0.058940   0.096418  47.162700  -0.004200  -0.002936  31.410400  -0.002212  -0.002553  34.996000   0.064807   0.092579  52.487500  -0.004142  -0.002911  34.961000  -0.003367  -0.004434   4.117540   3.989500  -0.782290  -0.301352   0.020611  12.655300  -2.505760  -3.202380   1.251480   0.000000   0.000000  -0.000000  -1.028710   3.923060  -6.379010   0.510217   1.072280 -11.454000   0.996186  -3.028170   0.013125  -0.000000   0.000000   0.000000
 -0.330711  89.398900   1.467190  -1.696970  -0.870966   1.726370   0.993770   2.904980   0.191624   1.981630   5.812880   0.333339  -1.268750  -0.921584  -0.019540  -2.086140  -1.865880   3.441200  -5.989240   2.908120   8.690240 -78.174300   7.447370   1.896000  -1.202390  -0.872204 -18.436800  10.871500  -7.466050   0.559132  42.396000  37.041100 -51.648600 -32.019900  -0.000923   0.001674 -11.009900  -0.003782  -0.001464 -36.452800  -3.647510   4.927280 -29.953500  -0.003446  -0.000715 -20.967400   0.012847   0.000118 -35.565400  -3.569230   4.965820 -53.579600   0.000434   0.013246 -35.684000  -0.004916   0.000557 -30.722600  -5.051780   8.431030 -46.643100   0.000986   0.004624 -31.064300   0.000062   0.003361 -33.899400  -8.309970  12.138600 -52.176900  -0.005677   0.004817 -34.749800   0.000147   0.003991   6.827870   4.171650   6.768040  72.886100 -12.670400   0.361908   5.339700 -15.541600  10.988500 -20.886800   2.105220   0.062772 -42.565800  40.004100  76.325000  30.727200   0.001596  -0.000857  10.354200  -0.000944  -0.001458  41.202000   0.064755   0.073962  33.710700  -0.000566  -0.006191  23.870300   0.003133  -0.003733  32.939900   0.053448   0.082495  49.409900  -0.006598  -0.002289  32.907000  -0.005290  -0.004501  31.441800   0.051274   0.083869  47.162700  -0.004211  -0.002918  31.410400  -0.002196  -0.002540  34.996000   0.056377   0.080524  52.494000  -0.004117  -0.002890  34.961000  -0.003348  -0.004441   4.137140   4.016120  -0.791909  -0.303420  -0.000156  12.651800  -2.517790  -3.189670   1.262750  -0.000000   0.000000   0.000000  -1.026570   3.941670  -6.379280   0.534702   1.064460 -11.422100   0.966571  -3.041920  -0.030951  -0.000000   0.000000  -0.000000
 -0.354273  89.398800   1.481900  -1.696840  -0.875361   1.731500   0.999801   2.911940   0.187861   1.993910   5.826740   0.325366  -1.271140  -0.899259  -0.019512  -2.090240  -1.820980   3.502300  -6.000440   2.904230   8.703050 -78.191500   7.508780   1.867160  -1.206130  -0.901472 -18.417500  10.879000  -7.450590   0.565857  42.384900  37.032100 -51.649200 -32.027600  -0.000938   0.001682 -11.013800  -0.003794  -0.001468 -36.459700  -3.647640   4.923700 -29.959000  -0.003457  -0.000718 -20.971300   0.012862   0.000121 -35.569600  -3.569250   4.965750 -53.585900   0.000435   0.013239 -35.688200  -0.004908   0.000523 -30.726000  -5.051710   8.430900 -46.648000   0.000995   0.004639 -31.067600   0.000072   0.003368 -33.904400  -8.317580  12.148600 -52.186800  -0.005708   0.004835 -34.756400   0.000142   0.004004   6.826050   4.179980   6.787310  72.874900 -12.645900   0.399007   5.335420 -15.545300  10.970000 -20.886900   2.109290   0.061634 -42.572400  40.024000  76.360800  30.727400   0.001607  -0.000889  10.353700  -0.000941  -0.001464  41.207000   0.065309   0.074582  33.714800  -0.000573  -0.006157  23.874000   0.003120  -0.003749  32.944100   0.053909   0.083191  49.418200  -0.006615  -0.002259  32.911200  -0.005286  -0.004487  31.445300   0.051714   0.084572  47.167900  -0.004225  -0.002885  31.413900  -0.002172  -0.002520  34.999400   0.056861   0.081204  52.500700  -0.004081  -0.002861  34.964400  -0.003318  -0.004452   4.153400   4.029170  -0.799570  -0.305223   0.000574  12.646300  -2.527480  -3.188670   1.273580  -0.000000   0.000000  -0.000000  -1.023640   3.961170  -6.379590   0.555364   1.063380 -11.399700   0.944463  -3.059650  -0.062209   0.000000   0.000000  -0.000000
 -0.377576  89.398800   1.495990  -1.696530  -0.885400   1.738370   1.006930   2.921180   0.183834   2.008400   5.845150   0.316769  -1.276900  -0.878033  -0.019481  -2.099450  -1.778290   3.567810  -6.013920   2.898170   8.712410 -78.209000   7.577310   1.835080  -1.208690  -0.936006 -18.393800  10.882900  -7.434670   0.571368  42.365600  37.015200 -51.653700 -32.043600  -0.000952   0.001690 -11.021800  -0.003811  -0.001471 -36.473500  -3.647820   4.917910 -29.970200  -0.003475  -0.000720 -20.979100   0.012882   0.000123 -35.577300  -3.569270   4.965730 -53.597600   0.000436   0.013229 -35.696000  -0.004897   0.000477 -30.731500  -5.051620   8.430800 -46.656200   0.001009   0.004658 -31.073000   0.000077   0.003378 -33.913900  -8.329560  12.159700 -52.204100  -0.005749   0.004860 -34.767900   0.000133   0.004020   6.828460   4.185900   6.800830  72.854700 -12.614300   0.423962   5.330480 -15.546600  10.950900 -20.887200   2.116710   0.061472 -42.578900  40.043900  76.396700  30.727500   0.001619  -0.000912  10.353400  -0.000935  -0.001469  41.214600   0.068485   0.078185  33.721000  -0.000582  -0.006112  23.879700   0.003102  -0.003771  32.951300   0.056537   0.087217  49.427000  -0.006640  -0.002221  32.918300  -0.005280  -0.004467  31.452200   0.054234   0.088659  47.178400  -0.004243  -0.002840  31.420800  -0.002141  -0.002494  35.007700   0.059634   0.085131  52.511600  -0.004036  -0.002823  34.972700  -0.003279  -0.004467   4.170400   4.042250  -0.805689  -0.306007   0.001303  12.639900  -2.538490  -3.188200   1.282680  -0.000000   0.000000   0.000000  -1.017550   3.981760  -6.380370   0.574184   1.063310 -11.375300   0.921490  -3.078460  -0.094517   0.000000   0.000000   0.000000
